<svg width="0" height="0" class="hidden">
  <symbol version="1.1" xmlns="http://www.w3.org/2000/svg" viewBox="0 0 393 331" id="Screenshot 2025-05-17 115040">
    <path d="M0 0 C129.69 0 259.38 0 393 0 C393 109.23 393 218.46 393 331 C263.31 331 133.62 331 0 331 C0 221.77 0 112.54 0 0 Z " fill="#F6F6F6" transform="translate(0,0)"></path>
    <path d="M0 0 C1.16499023 -0.0309375 1.16499023 -0.0309375 2.35351562 -0.0625 C8.11230294 -0.10218157 8.11230294 -0.10218157 10.29052734 1.60180664 C12.16006899 4.02431637 11.85616584 5.92946799 11.75 8.9375 C11.70939453 10.42830078 11.70939453 10.42830078 11.66796875 11.94921875 C11.63316406 12.70847656 11.59835938 13.46773437 11.5625 14.25 C12.45453125 14.20359375 13.3465625 14.1571875 14.265625 14.109375 C15.43609375 14.07328125 16.6065625 14.0371875 17.8125 14 C19.55273438 13.93039063 19.55273438 13.93039063 21.328125 13.859375 C24.5625 14.25 24.5625 14.25 26.74023438 15.90820312 C29.0392777 18.86270789 29.02880833 20.40089197 28.953125 24.109375 C28.94023437 25.22441406 28.92734375 26.33945313 28.9140625 27.48828125 C28.88054687 28.64714844 28.84703125 29.80601563 28.8125 31 C28.79445313 32.17433594 28.77640625 33.34867188 28.7578125 34.55859375 C28.7106912 37.4565534 28.64491305 40.35286418 28.5625 43.25 C29.34947266 43.5485791 30.13644531 43.8471582 30.94726562 44.15478516 C37.08261858 46.72416467 40.66576951 52.84413328 43.5 58.625 C46.63263315 66.58966861 45.98251914 74.84961724 45.5625 83.25 C46.5525 82.92 47.5425 82.59 48.5625 82.25 C50.91244911 81.99851912 53.26780098 81.79563488 55.625 81.625 C56.87410156 81.52960938 58.12320313 81.43421875 59.41015625 81.3359375 C62.5625 81.25 62.5625 81.25 64.5625 82.25 C64.6875 84.625 64.6875 84.625 64.5625 87.25 C61.56788325 90.24461675 57.97319383 89.97479681 53.9375 90.375 C51.17375 90.66375 48.41 90.9525 45.5625 91.25 C45.5625 97.85 45.5625 104.45 45.5625 111.25 C48.06901042 110.76171875 50.57552083 110.2734375 53.08203125 109.78515625 C63.66036997 108.15863279 74.28635735 107.98710984 84.97216797 107.84863281 C86.94781677 107.82098803 88.92316523 107.77401649 90.8984375 107.7265625 C92.63939697 107.6968335 92.63939697 107.6968335 94.41552734 107.66650391 C97.86235684 107.21031375 99.70087922 106.15754154 102.5625 104.25 C104.53064091 103.82087641 106.51159473 103.4474441 108.5 103.125 C113.35017924 102.01997148 115.49777272 100.86260206 118.25 96.6875 C119.06125582 95.23011122 119.84062556 93.7536673 120.5625 92.25 C120.8925 91.59 121.2225 90.93 121.5625 90.25 C114.57251323 89.62505002 107.59836383 89.17104485 100.58203125 89.00390625 C99.91001678 88.98725922 99.23800232 88.97061218 98.54562378 88.95346069 C95.77847944 88.88701953 93.01137135 88.8242374 90.24389648 88.77319336 C88.18964063 88.73370208 86.13596761 88.68224478 84.08203125 88.62890625 C82.87651611 88.6038501 81.67100098 88.57879395 80.42895508 88.55297852 C77.5625 88.25 77.5625 88.25 75.5625 86.25 C76.11805556 81.69444444 76.11805556 81.69444444 77.5625 80.25 C81.03232424 79.98528075 84.5213955 80.06033129 88 80.0625 C89.05574219 80.06185547 90.11148438 80.06121094 91.19921875 80.06054688 C103.36550077 80.13908508 115.45295413 81.14162871 127.5625 82.25 C127.76359375 81.48300781 127.9646875 80.71601563 128.171875 79.92578125 C130.13455767 74.73790374 132.97048017 70.18827039 135.8125 65.4375 C140.88911207 56.85400908 145.84893942 48.21983493 150.6875 39.5 C155.09243715 31.60208776 159.53417182 23.72912768 164.125 15.9375 C164.83970459 14.7014502 164.83970459 14.7014502 165.56884766 13.44042969 C168.07842996 9.22833104 170.29771138 5.89208856 174.5625 3.25 C180.93243573 2.42807281 184.37265993 3.51331515 189.5625 7.25 C192.11936193 11.42319468 192.46302261 15.49956869 191.5625 20.25 C189.61127972 24.73662049 187.1215279 28.83667933 184.5625 33 C183.86655182 34.15782138 183.17205688 35.3165175 182.47900391 36.47607422 C181.12643869 38.73297847 179.76248942 40.98156007 178.39160156 43.22753906 C176.86970419 45.74236681 175.39727754 48.27180454 173.9609375 50.8359375 C173.28647369 52.01563378 172.61199641 53.19532236 171.9375 54.375 C171.11378906 55.83292969 171.11378906 55.83292969 170.2734375 57.3203125 C168.5625 59.25 168.5625 59.25 165.9140625 59.6171875 C163.5625 59.25 163.5625 59.25 162.5625 58.25 C161.99179146 53.64102586 163.51700801 51.06029373 165.88671875 47.171875 C166.40163628 46.31556488 166.40163628 46.31556488 166.92695618 45.44195557 C168.02442425 43.62154959 169.13659848 41.81069546 170.25 40 C170.97955973 38.79881061 171.70808554 37.59699262 172.43554688 36.39453125 C172.79077423 35.80772583 173.14600159 35.22092041 173.51199341 34.61633301 C174.55795515 32.88627556 175.60218828 31.15518578 176.64599609 29.42382812 C177.83032133 27.46252518 179.02407482 25.5068389 180.23291016 23.56054688 C180.69874512 22.78259766 181.16458008 22.00464844 181.64453125 21.203125 C182.04518799 20.54989258 182.44584473 19.89666016 182.85864258 19.22363281 C183.79015829 16.61164079 183.2862758 14.88056443 182.5625 12.25 C179.70987628 11.83746514 179.70987628 11.83746514 176.5625 12.25 C174.54923021 14.23612996 174.54923021 14.23612996 173.0625 17.1875 C172.74265137 17.74598633 172.42280273 18.30447266 172.09326172 18.87988281 C170.89314128 20.99091165 169.72982305 23.12065979 168.5625 25.25 C167.47325681 27.19507712 166.38195708 29.13900341 165.2890625 31.08203125 C162.85034946 35.42341009 160.42261283 39.77071338 158 44.12109375 C154.92470745 49.62623672 151.76313682 55.07173658 148.54052734 60.49145508 C143.67824037 68.69348477 138.98166461 76.9913753 134.27001953 85.28051758 C121.9941655 106.84148614 121.9941655 106.84148614 117.5625 109.25 C114.53500212 110.07412848 111.48956494 110.78149653 108.43359375 111.4921875 C100.65230955 113.54602306 97.49737898 118.72669031 93.5625 125.25 C92.634375 126.7659375 92.634375 126.7659375 91.6875 128.3125 C91.130625 129.2715625 91.130625 129.2715625 90.5625 130.25 C91.19414062 130.0334375 91.82578125 129.816875 92.4765625 129.59375 C102.31391453 126.53198049 111.76574079 125.86330576 121.5625 129.25 C123.51329406 129.51995323 125.4733672 129.73128297 127.4375 129.875 C128.40429688 129.94976562 129.37109375 130.02453125 130.3671875 130.1015625 C131.45386719 130.17503906 131.45386719 130.17503906 132.5625 130.25 C132.25200274 128.81206608 131.9390224 127.3746682 131.625 125.9375 C131.45097656 125.13699219 131.27695313 124.33648437 131.09765625 123.51171875 C130.56363841 121.104599 130.56363841 121.104599 129.5625 118.25 C128.35434887 109.96417613 132.28109385 104.59780319 136.5 97.6875 C137.19120991 96.52889588 137.88090093 95.3693843 138.5690918 94.20898438 C139.92753435 91.92476031 141.29697879 89.64842303 142.67285156 87.37451172 C144.29749787 84.68817794 145.9018646 81.99188356 147.4921875 79.28515625 C153.1937445 69.6187555 153.1937445 69.6187555 155.5625 67.25 C158.1875 67.625 158.1875 67.625 160.5625 68.25 C160.09664976 73.99548634 158.49151566 77.80497444 155.5 82.6875 C154.93442383 83.64172852 154.93442383 83.64172852 154.35742188 84.61523438 C153.43609498 86.16632902 152.50073407 87.70907343 151.5625 89.25 C152.7175 89.415 153.8725 89.58 155.0625 89.75 C165.98586303 92.20818946 177.83736627 98.14691843 184.5625 107.25 C188.31848529 113.42920161 188.25457066 120.1888617 188.5625 127.25 C189.13685791 127.08991455 189.71121582 126.9298291 190.30297852 126.76489258 C194.01335645 125.91938344 197.70800156 125.98318673 201.5 125.9375 C202.69786133 125.89399414 202.69786133 125.89399414 203.91992188 125.84960938 C207.59812006 125.80999332 210.16974036 126.08478756 213.58984375 127.5234375 C216.85058417 132.03036188 216.28360094 136.77701721 216.1875 142.1875 C216.21650391 143.81461914 216.21650391 143.81461914 216.24609375 145.47460938 C216.21660452 150.27250755 216.13407644 153.33880727 213.55078125 157.45703125 C209.62928066 159.8099316 206.62255022 159.99218497 202.125 160 C200.64706676 160.03356006 199.16919513 160.0699673 197.69140625 160.109375 C197.04244385 160.11420898 196.39348145 160.11904297 195.72485352 160.12402344 C192.96071156 160.2850596 190.28580726 160.76212766 187.5625 161.25 C187.58606567 162.6412207 187.58606567 162.6412207 187.61010742 164.06054688 C187.66154057 167.53456322 187.69899682 171.00816906 187.72729492 174.48242188 C187.74228888 175.97988307 187.76269105 177.47730105 187.78881836 178.97460938 C188.07670554 195.90914937 188.07670554 195.90914937 183.08203125 203.5 C172.89251646 213.94600143 158.31781492 218.52579129 144.5625 222.25 C143.56734375 222.53488281 142.5721875 222.81976563 141.546875 223.11328125 C110.74679728 231.14271327 74.76845602 230.93981918 43.5625 225.25 C42.74604004 225.10546387 41.92958008 224.96092773 41.08837891 224.81201172 C23.88797699 221.668526 1.23826066 216.2061364 -9.4375 201.25 C-13.53141045 193.51185347 -12.77352066 185.26144807 -12.625 176.75 C-12.6099286 175.24480503 -12.59624453 173.73959549 -12.58398438 172.234375 C-12.55116687 168.57261059 -12.49951989 164.91139979 -12.4375 161.25 C-13.14358398 161.21559814 -13.84966797 161.18119629 -14.57714844 161.14575195 C-17.78243973 160.97579035 -20.98440065 160.76956535 -24.1875 160.5625 C-25.29867187 160.50900391 -26.40984375 160.45550781 -27.5546875 160.40039062 C-35.54475825 159.84686163 -35.54475825 159.84686163 -39.171875 157.421875 C-41.17745417 152.39554696 -41.01391973 147.54643363 -40.9375 142.1875 C-40.95296875 141.09888672 -40.9684375 140.01027344 -40.984375 138.88867188 C-40.97921875 137.84130859 -40.9740625 136.79394531 -40.96875 135.71484375 C-40.96423828 134.762146 -40.95972656 133.80944824 -40.95507812 132.82788086 C-40.28344195 129.48268919 -39.13462094 128.29140023 -36.4375 126.25 C-34.41040039 125.7800293 -34.41040039 125.7800293 -32.28515625 125.82421875 C-31.12016602 125.83678711 -31.12016602 125.83678711 -29.93164062 125.84960938 C-29.12919922 125.87861328 -28.32675781 125.90761719 -27.5 125.9375 C-26.70142578 125.94716797 -25.90285156 125.95683594 -25.08007812 125.96679688 C-21.08927197 126.04284372 -17.33028332 126.28270233 -13.4375 127.25 C-13.41171875 126.404375 -13.3859375 125.55875 -13.359375 124.6875 C-12.86535188 114.80703766 -11.14152134 107.94412724 -3.8203125 101.05078125 C-0.70263419 98.6946342 2.5688672 96.79925661 6 94.9375 C6.93066284 94.43089844 6.93066284 94.43089844 7.88012695 93.9140625 C12.55422311 91.49720682 16.11206853 90.61260787 21.5625 89.25 C21.5625 80.67 21.5625 72.09 21.5625 63.25 C17.2725 63.25 12.9825 63.25 8.5625 63.25 C7.9025 62.59 7.2425 61.93 6.5625 61.25 C7.09821429 57.71428571 7.09821429 57.71428571 8.5625 56.25 C10.74889453 56.17741054 12.93750389 56.16626217 15.125 56.1875 C16.92130859 56.20103516 16.92130859 56.20103516 18.75390625 56.21484375 C19.68074219 56.22644531 20.60757813 56.23804688 21.5625 56.25 C21.5625 53.28 21.5625 50.31 21.5625 47.25 C20.22574219 47.04503906 18.88898438 46.84007812 17.51171875 46.62890625 C15.75779141 46.35690682 14.0038863 46.08476394 12.25 45.8125 C11.36892578 45.67779297 10.48785156 45.54308594 9.58007812 45.40429688 C8.73251953 45.27216797 7.88496094 45.14003906 7.01171875 45.00390625 C6.23143311 44.88345947 5.45114746 44.7630127 4.6472168 44.63891602 C2.5625 44.25 2.5625 44.25 -0.4375 43.25 C-5.0140705 42.87028305 -5.0140705 42.87028305 -9.2578125 44.24609375 C-12.2058732 45.60389232 -14.64187745 45.51495086 -17.875 45.5 C-18.98746094 45.50515625 -20.09992188 45.5103125 -21.24609375 45.515625 C-24.384509 45.25441051 -26.60585425 44.58378454 -29.4375 43.25 C-29.29712479 45.06293089 -29.15005111 46.8753443 -29 48.6875 C-28.91878906 49.69683594 -28.83757812 50.70617187 -28.75390625 51.74609375 C-28.70538532 54.18640779 -28.70538532 54.18640779 -27.4375 55.25 C-25.74321693 55.39530987 -24.04339258 55.47716523 -22.34375 55.53125 C-20.79880859 55.58732422 -20.79880859 55.58732422 -19.22265625 55.64453125 C-18.13855469 55.67933594 -17.05445312 55.71414062 -15.9375 55.75 C-13.80193906 55.81856141 -11.66650524 55.89125012 -9.53125 55.96875 C-8.57927734 55.99904297 -7.62730469 56.02933594 -6.64648438 56.06054688 C-4.4375 56.25 -4.4375 56.25 -3.4375 57.25 C-3.3125 59.75 -3.3125 59.75 -3.4375 62.25 C-6.09802231 64.91052231 -13.61411245 63.5830946 -17.1875 63.625 C-18.38117188 63.66238281 -19.57484375 63.69976562 -20.8046875 63.73828125 C-30.6536333 63.83743171 -30.6536333 63.83743171 -33.703125 60.8515625 C-36.51722627 56.6304106 -36.62618942 53.53931726 -36.67578125 48.57421875 C-36.68788887 47.43095879 -36.68788887 47.43095879 -36.70024109 46.26460266 C-36.71407975 44.64981357 -36.72480289 43.03499526 -36.73266602 41.42016602 C-36.74986192 38.95727667 -36.79374507 36.49573594 -36.83789062 34.03320312 C-36.84801935 32.46355153 -36.85653489 30.89388853 -36.86328125 29.32421875 C-36.88078934 28.59071701 -36.89829742 27.85721527 -36.91633606 27.10148621 C-36.8955822 22.17903616 -35.92614912 19.71098403 -32.4375 16.25 C-29.34250339 14.14892507 -26.88164829 14.02778557 -23.1875 14.125 C-22.29546875 14.14304687 -21.4034375 14.16109375 -20.484375 14.1796875 C-19.47117187 14.21449219 -19.47117187 14.21449219 -18.4375 14.25 C-18.416875 13.21875 -18.39625 12.1875 -18.375 11.125 C-17.14075066 6.02343605 -14.64727809 4.14726067 -10.4375 1.25 C-7.16728041 -0.38510979 -3.59016249 0.02371701 0 0 Z " fill="#090909" transform="translate(107.4375,47.75)"></path>
    <path d="M0 0 C0.85980469 0.51949219 1.71960938 1.03898438 2.60546875 1.57421875 C43.40539786 25.83505361 102.2687224 26.72994794 147.51318359 15.66113281 C159.88967838 12.37077861 171.2550245 8.01793603 182 1 C182.66 0.67 183.32 0.34 184 0 C184.29206649 4.01928423 184.46849455 8.03583834 184.625 12.0625 C184.70878906 13.19623047 184.79257812 14.32996094 184.87890625 15.49804688 C184.97891012 18.92817967 184.92539088 21.69003347 184 25 C181.03334566 28.1038136 177.72037938 29.92774499 174 32 C172.17017486 33.42911153 172.17017486 33.42911153 171 35 C171.22757731 37.16299211 171.22757731 37.16299211 172 39 C176.43593314 38.49303621 178.62433768 36.82825762 182 34 C182.66 34 183.32 34 184 34 C184.11647041 38.54144994 184.18734502 43.08251394 184.25 47.625 C184.28351563 48.91019531 184.31703125 50.19539063 184.3515625 51.51953125 C184.47484018 63.41582691 184.47484018 63.41582691 180 68 C169.31211339 77.33338217 154.85250824 80.94500876 141.375 84.0625 C140.34717407 84.30625366 140.34717407 84.30625366 139.29858398 84.55493164 C124.7687055 87.80010832 110.37667859 88.34714608 95.54858398 88.31567383 C92.46626845 88.31252935 89.38493113 88.33600982 86.30273438 88.36132812 C59.89172346 88.44593325 24.95670585 86.58993209 4 68 C-0.81965674 63.05373231 -0.42096511 58.21688344 -0.3515625 51.51953125 C-0.31804687 50.23433594 -0.28453125 48.94914062 -0.25 47.625 C-0.23195313 46.31660156 -0.21390625 45.00820312 -0.1953125 43.66015625 C-0.14829348 40.43935311 -0.08258181 37.22005526 0 34 C4.8125 35.7890625 4.8125 35.7890625 6.5 37.6875 C6.995 38.120625 7.49 38.55375 8 39 C10.65466049 38.76956136 10.65466049 38.76956136 13 38 C12.43537722 34.56025861 11.43443903 33.12590138 8.75 30.9375 C7.87601563 30.20853516 7.87601563 30.20853516 6.984375 29.46484375 C4.98637148 27.89213837 4.98637148 27.89213837 2.40649414 26.76855469 C0 25 0 25 -0.56762695 22.36450195 C-0.54144287 21.33284912 -0.51525879 20.30119629 -0.48828125 19.23828125 C-0.47216797 18.12001953 -0.45605469 17.00175781 -0.43945312 15.84960938 C-0.39755859 14.68236328 -0.35566406 13.51511719 -0.3125 12.3125 C-0.27866211 10.54422852 -0.27866211 10.54422852 -0.24414062 8.74023438 C-0.18513901 5.82555452 -0.10286341 2.91340839 0 0 Z " fill="#F5F5F5" transform="translate(103,180)"></path>
    <path d="M0 0 C4.68268241 3.5371396 7.23785441 6.39639145 9 12 C9.52035131 15.9562245 9.51099616 19.8542534 9.46875 23.83984375 C9.47579956 24.96137344 9.48284912 26.08290314 9.4901123 27.23841858 C9.5194691 32.00696946 9.50299039 36.77510543 9.49072266 41.54370117 C9.48833371 45.03849386 9.50930214 48.5326325 9.53125 52.02734375 C9.51993042 53.09323227 9.50861084 54.15912079 9.49694824 55.25730896 C9.55265546 63.5593737 11.31029613 69.5516617 16.4375 76.125 C18.85110372 78.31261809 18.85110372 78.31261809 21.8125 77.8125 C22.8953125 77.4103125 22.8953125 77.4103125 24 77 C23.51428134 72.62853208 22.16325079 70.9591701 19 68 C19 67.34 19 66.68 19 66 C32.92453765 63.38769143 46.88642329 63.8000692 61 64 C60.57847656 64.77085937 60.15695313 65.54171875 59.72265625 66.3359375 C59.17480469 67.33882813 58.62695312 68.34171875 58.0625 69.375 C57.51722656 70.37273437 56.97195312 71.37046875 56.41015625 72.3984375 C55.5850241 73.92070346 54.77435609 75.45128783 54 77 C53.360625 76.835 52.72125 76.67 52.0625 76.5 C48.02413348 75.84067485 44.08192742 75.91996221 40 76 C39.67 77.65 39.34 79.3 39 81 C41.27592463 82.13796231 42.97383275 82.27034843 45.5 82.5 C49.77777778 82.88888889 49.77777778 82.88888889 52 84 C54.80196291 84.09861981 57.57354047 84.13896076 60.375 84.125 C61.14328125 84.12886719 61.9115625 84.13273437 62.703125 84.13671875 C63.82074219 84.13478516 63.82074219 84.13478516 64.9609375 84.1328125 C65.63946777 84.13168457 66.31799805 84.13055664 67.01708984 84.12939453 C69.11605036 83.99242715 70.96388397 83.51253265 73 83 C75.71945114 82.90545875 78.40671215 82.86041169 81.125 82.875 C82.21748047 82.86919922 82.21748047 82.86919922 83.33203125 82.86328125 C88.74657931 82.87328966 88.74657931 82.87328966 91 84 C93.6172113 84.12716394 96.19480647 84.18977255 98.8125 84.1875 C99.94643188 84.1884668 99.94643188 84.1884668 101.10327148 84.18945312 C107.87936483 84.12666527 114.34285039 83.29669697 121 82 C121.38218767 80.34385343 121.71395102 78.67542976 122 77 C120.41727399 75.41727399 118.61965997 75.65264253 116.4375 75.4375 C115.19806641 75.31181641 115.19806641 75.31181641 113.93359375 75.18359375 C113.29550781 75.12300781 112.65742188 75.06242187 112 75 C111.67 73.02 111.34 71.04 111 69 C120.21522871 70.64557656 129.61176879 73.8058844 138 78 C138 78.66 138 79.32 138 80 C112.23303873 90.82645432 87.5750388 94.23289895 59.8125 94.25 C58.33960007 94.25101212 58.33960007 94.25101212 56.83694458 94.25204468 C29.98552171 94.22273 4.52780634 91.64370578 -20 80 C-20 79.34 -20 78.68 -20 78 C-18.75539217 77.32332002 -17.50403104 76.65905281 -16.25 76 C-15.55390625 75.62875 -14.8578125 75.2575 -14.140625 74.875 C-12 74 -12 74 -8 74 C-7.67 75.65 -7.34 77.3 -7 79 C-5.35 79 -3.7 79 -2 79 C-0.51166182 76.02332364 -0.82105003 72.97080848 -0.79467773 69.70458984 C-0.78477814 68.95327286 -0.77487854 68.20195587 -0.76467896 67.4278717 C-0.73303477 64.93892594 -0.70829505 62.44996107 -0.68359375 59.9609375 C-0.66302674 58.23743182 -0.64203033 56.51393121 -0.62062073 54.79043579 C-0.56537393 50.2497976 -0.51597617 45.7091137 -0.46777344 41.168396 C-0.41757744 36.53670168 -0.36188146 31.90507391 -0.30664062 27.2734375 C-0.19902716 18.18234849 -0.09758928 9.09120175 0 0 Z " fill="#F1F1F1" transform="translate(136,100)"></path>
    <path d="M0 0 C0.88602402 0.00222061 1.77204803 0.00444122 2.68492126 0.00672913 C3.68588333 0.00680466 4.6868454 0.00688019 5.71813965 0.00695801 C6.80666733 0.01211929 7.89519501 0.01728058 9.01670837 0.02259827 C10.67928932 0.02472069 10.67928932 0.02472069 12.37545776 0.02688599 C15.93168281 0.03250418 19.48784596 0.04505977 23.04405212 0.05775452 C25.44834809 0.06276717 27.85264504 0.06733048 30.25694275 0.07142639 C36.1651699 0.08247953 42.0733505 0.09975635 47.98155212 0.12025452 C47.98155212 5.73025452 47.98155212 11.34025452 47.98155212 17.12025452 C34.46131224 16.36913008 34.46131224 16.36913008 29.98155212 14.12025452 C26.90749992 13.80338364 26.90749992 13.80338364 23.60655212 13.87025452 C22.50569275 13.86509827 21.40483337 13.85994202 20.27061462 13.85462952 C16.87140885 14.1291497 14.17848698 14.97435179 10.98155212 16.12025452 C5.36216395 16.63110799 1.92405184 15.54107071 -3.01844788 13.12025452 C-3.04531341 11.14116054 -3.06478163 9.16196481 -3.08094788 7.18275452 C-3.09254944 6.08060608 -3.104151 4.97845764 -3.11610413 3.84291077 C-2.98464457 0.17781831 -2.98464457 0.17781831 0 0 Z " fill="#F0F0F0" transform="translate(81.01844787597656,69.87974548339844)"></path>
    <path d="M0 0 C10.80871219 2.61501101 24.67065511 7.49046856 31.375 16.9375 C32.25688519 19.84772112 32.36405994 21.96616714 32 25 C30 28.375 30 28.375 28 31 C24.26120961 30.23941274 20.9771758 28.73421671 17.5 27.1875 C8.57319022 23.28714199 -0.50154467 20.19195123 -10 18 C-8.5216233 13.98832453 -6.60821705 10.42979591 -4.4375 6.75 C-3.81746094 5.69296875 -3.19742188 4.6359375 -2.55859375 3.546875 C-1 1 -1 1 0 0 Z " fill="#F1F1F1" transform="translate(255,143)"></path>
    <path d="M0 0 C0 6.6 0 13.2 0 20 C-2.8875 21.299375 -5.775 22.59875 -8.75 23.9375 C-9.65331055 24.34605225 -10.55662109 24.75460449 -11.48730469 25.17553711 C-12.20821289 25.4978833 -12.92912109 25.82022949 -13.671875 26.15234375 C-14.4050293 26.48226318 -15.13818359 26.81218262 -15.89355469 27.15209961 C-17.91492307 27.96575427 -19.87566863 28.52769312 -22 29 C-24.29037598 25.99388153 -25.87295965 23.76224213 -26.5 20 C-25.47022437 13.82134622 -22.23269612 10.957169 -17.375 7.375 C-12.44099665 4.07346364 -6.13585574 0 0 0 Z " fill="#EEEEEE" transform="translate(129,145)"></path>
    <path d="M0 0 C3 0.125 3 0.125 4 1.125 C4.64885883 6.09958436 3.75006601 8.95643635 1.5 13.4375 C-1.09535434 18.88032883 -2.16299509 23.14899448 -1 29.125 C0.16817743 32.26699447 1.49260166 35.29621526 2.87890625 38.34765625 C4.34032542 41.96810584 4.58354682 44.29026372 4 48.125 C3.34 48.785 2.68 49.445 2 50.125 C-2.55555556 49.56944444 -2.55555556 49.56944444 -4 48.125 C-4.29922386 46.79774963 -4.56400789 45.46267714 -4.8125 44.125 C-5.52351987 40.68388095 -6.52906239 37.87420295 -8.125 34.75 C-10.52683197 29.52941428 -10.93608603 24.78832048 -10 19.125 C-8.89177884 16.18821394 -7.5982166 13.44522587 -6.17578125 10.6484375 C-4.66432577 7.40458289 -4.30762236 4.66265711 -4 1.125 C-3 0.125 -3 0.125 0 0 Z " fill="#0D0D0D" transform="translate(198,68.875)"></path>
    <path d="M0 0 C3.69230769 0.69230769 3.69230769 0.69230769 5 2 C5.53898842 7.65937841 5.24488387 11.05347464 2.5 16.0625 C0.14058836 20.45100565 -1.15248168 24.02659831 0 29 C1.21176907 32.04613673 2.53948522 35.02539365 3.8828125 38.015625 C5.47871987 42.27881812 5.44292654 45.49691353 5 50 C4 51 4 51 1.5 51.125 C-1 51 -1 51 -2 50 C-2.29801528 48.65155462 -2.56320705 47.29579712 -2.8125 45.9375 C-3.49432832 42.62204472 -4.38126802 40.13978903 -6.125 37.25 C-9.54844468 30.72607713 -9.01714641 23.37797701 -6.94140625 16.484375 C-5.70904522 13.28096768 -4.36525496 10.14836068 -3 7 C-2.63648438 5.90558594 -2.27296875 4.81117187 -1.8984375 3.68359375 C-1 1 -1 1 0 0 Z " fill="#080808" transform="translate(177,68)"></path>
    <path d="M0 0 C3.69230769 0.69230769 3.69230769 0.69230769 5 2 C5.62415897 7.5134042 4.75843776 10.98420493 2.5 16.0625 C-0.22616241 22.29119488 -0.22616241 22.29119488 0 29 C1.23523477 31.74307308 2.55994948 34.4349392 3.8828125 37.13671875 C5.54983047 41.40918088 5.65054216 45.48337869 5 50 C4 51 4 51 1.5 51.125 C-1 51 -1 51 -2 50 C-2.29922386 48.67274963 -2.56400789 47.33767714 -2.8125 46 C-3.51714359 42.57898227 -4.50712573 39.83710992 -6.125 36.75 C-9.18246678 30.12741157 -9.34148516 22.84130067 -6.94140625 15.96875 C-6.08153651 14.11122724 -5.18301037 12.27098614 -4.2421875 10.453125 C-2.67670553 7.36154426 -1.87161289 4.34118275 -1 1 C-0.67 0.67 -0.34 0.34 0 0 Z " fill="#070707" transform="translate(216,68)"></path>
    <path d="M0 0 C1.65 0 3.3 0 5 0 C5 5.61 5 11.22 5 17 C3.02 17.33 1.04 17.66 -1 18 C-1.02684312 15.18743719 -1.04676188 12.37512759 -1.0625 9.5625 C-1.07087891 8.76005859 -1.07925781 7.95761719 -1.08789062 7.13085938 C-1.0965143 5.08704779 -1.0522815 3.04316098 -1 1 C-0.67 0.67 -0.34 0.34 0 0 Z " fill="#F5F5F5" transform="translate(296,183)"></path>
    <path d="M0 0 C2.97 0.495 2.97 0.495 6 1 C6 6.61 6 12.22 6 18 C4.02 17.67 2.04 17.34 0 17 C0 11.39 0 5.78 0 0 Z " fill="#F5F5F5" transform="translate(89,183)"></path>
    <path d="M0 0 C1.98 0 3.96 0 6 0 C6 5.61 6 11.22 6 17 C4.02 17 2.04 17 0 17 C0 11.39 0 5.78 0 0 Z " fill="#F7F7F7" transform="translate(309,182)"></path>
    <path d="M0 0 C1.98 0 3.96 0 6 0 C6 5.61 6 11.22 6 17 C4.02 17 2.04 17 0 17 C0 11.39 0 5.78 0 0 Z " fill="#F7F7F7" transform="translate(75,182)"></path>
    <path d="M0 0 C0.90105469 0.01804688 1.80210938 0.03609375 2.73046875 0.0546875 C3.41753906 0.07789063 4.10460937 0.10109375 4.8125 0.125 C4.8125 2.435 4.8125 4.745 4.8125 7.125 C-0.1375 7.125 -5.0875 7.125 -10.1875 7.125 C-7.72578525 0.97071314 -6.31561953 -0.16404207 0 0 Z " fill="#E8E8E8" transform="translate(106.1875,54.875)"></path>
  </symbol>
</svg>